<svg enable-background="new 0 0 38 60" height="512" viewBox="0 0 38 60" width="512" xmlns="http://www.w3.org/2000/svg"><path d="m19 35.27c-1.024 0-2.022-.106-3-.27v21c0 1.657 1.343 3 3 3s3-1.343 3-3v-21c-.978.164-1.976.27-3 .27z" fill="#e7eced"/><circle cx="19" cy="19" fill="#dd352e" r="18"/><circle cx="25" cy="16" fill="#ed0000" r="5"/><g fill="#4d007e"><path d="m19 38c-10.477 0-19-8.523-19-19s8.523-19 19-19 19 8.523 19 19-8.523 19-19 19zm0-36c-9.374 0-17 7.626-17 17s7.626 17 17 17 17-7.626 17-17-7.626-17-17-17z"/><path d="m19 60c-2.206 0-4-1.794-4-4v-19.27c0-.294.129-.573.354-.764.224-.189.52-.269.812-.223 2.051.344 3.618.344 5.669 0 .291-.046.587.033.812.223.224.191.353.471.353.764v19.27c0 2.206-1.794 4-4 4zm-2-22.118v18.118c0 1.103.897 2 2 2s2-.897 2-2v-18.118c-1.39.158-2.61.158-4 0z"/><path d="m25 22c-3.308 0-6-2.691-6-6s2.692-6 6-6 6 2.691 6 6-2.692 6-6 6zm0-10c-2.206 0-4 1.794-4 4s1.794 4 4 4 4-1.794 4-4-1.794-4-4-4z"/></g></svg>